<svg width="213" height="95" viewBox="0 0 213 95" fill="none" xmlns="http://www.w3.org/2000/svg">
<g clip-path="url(#clip0)">
<path d="M37.0286 90.4843C37.0286 91.675 36.1399 92.3695 34.7583 92.3695H33.7218V93.8083H32.487V88.5492H34.7583C36.1399 88.5492 37.0286 89.2935 37.0286 90.4843ZM35.7948 90.4843C35.7948 89.8884 35.4 89.5914 34.6591 89.5914H33.6722V91.4269H34.6591C35.4 91.3771 35.7948 91.0303 35.7948 90.4843Z" fill="#ED2079"/>
<path d="M38.2138 91.1797C38.2138 89.6413 39.4477 88.4506 41.0763 88.4506C42.7049 88.4506 43.9397 89.5915 43.9397 91.1797C43.9397 92.7671 42.7049 93.9089 41.0763 93.9089C39.4477 93.9089 38.2138 92.7671 38.2138 91.1797ZM42.7049 91.1797C42.7049 90.1873 42.0145 89.4928 41.0763 89.4928C40.138 89.4928 39.4477 90.1873 39.4477 91.1797C39.4477 92.1722 40.138 92.8667 41.0763 92.8667C42.0145 92.8667 42.7049 92.1722 42.7049 91.1797Z" fill="#ED2079"/>
<path d="M53.1697 88.5492L51.4419 93.8093H50.1585L49.0238 90.2371L47.8386 93.8093H46.5552L44.8274 88.5492H46.0622L47.2465 92.2708L48.4803 88.5492H49.616L50.8002 92.2708L52.0341 88.5492H53.1697Z" fill="#ED2079"/>
<path d="M58.5009 92.8667V93.8591H54.4532V88.599H58.4026V89.5915H55.6384V90.7333H58.0565V91.676H55.6384V92.9165H58.5009V92.8667Z" fill="#ED2079"/>
<path d="M63.3876 93.8093L62.4007 92.3206H62.3511H61.3147V93.8093H60.0808V88.5492H62.3511C63.7328 88.5492 64.6215 89.2935 64.6215 90.4354C64.6215 91.2286 64.2267 91.8244 63.5354 92.0725L64.7206 93.7595H63.3876V93.8093ZM62.252 89.5416H61.2651V91.378H62.252C62.9929 91.378 63.3876 91.0303 63.3876 90.4852C63.3876 89.8894 62.9929 89.5416 62.252 89.5416Z" fill="#ED2079"/>
<path d="M70.1995 92.8667V93.8591H66.1519V88.599H70.1003V89.5915H67.3361V90.7333H69.7551V91.676H67.3361V92.9165H70.1995V92.8667Z" fill="#ED2079"/>
<path d="M71.7795 88.5492H74.1481C75.8759 88.5492 77.0115 89.5915 77.0115 91.1797C77.0115 92.767 75.8273 93.8093 74.1481 93.8093H71.7795V88.5492ZM74.0995 92.8168C75.136 92.8168 75.8273 92.1722 75.8273 91.1797C75.8273 90.1873 75.136 89.5416 74.0995 89.5416H73.0134V92.8168H74.0995Z" fill="#ED2079"/>
<path d="M86.0441 92.3704C86.0441 93.2632 85.3042 93.8093 83.9712 93.8093H81.2565V88.5492H83.8234C85.1564 88.5492 85.7981 89.0952 85.7981 89.9392C85.7981 90.4852 85.5512 90.8818 85.1068 91.0801C85.699 91.2784 86.0441 91.7248 86.0441 92.3704ZM82.4408 89.4928V90.7333H83.626C84.2182 90.7333 84.5147 90.5341 84.5147 90.0877C84.5147 89.6911 84.1686 89.4928 83.626 89.4928H82.4408ZM84.8599 92.2708C84.8599 91.8244 84.5147 91.6261 83.873 91.6261H82.4408V92.9165H83.873C84.5147 92.9165 84.8599 92.7172 84.8599 92.2708Z" fill="#ED2079"/>
<path d="M89.9937 91.9729V93.8591H88.7598V91.9729L86.7355 88.599H88.0189L89.4015 90.9316L90.7832 88.599H91.9684L89.9937 91.9729Z" fill="#ED2079"/>
<path d="M100.606 92.3704C100.606 93.2632 99.8653 93.8093 98.5332 93.8093H95.8176V88.5492H98.3845C99.7175 88.5492 100.359 89.0952 100.359 89.9392C100.359 90.4852 100.112 90.8818 99.6679 91.0801C100.261 91.2784 100.606 91.7248 100.606 92.3704ZM97.0524 89.4928V90.7333H98.2367C98.8288 90.7333 99.1254 90.5341 99.1254 90.0877C99.1254 89.6911 98.7793 89.4928 98.2367 89.4928H97.0524ZM99.421 92.2708C99.421 91.8244 99.0758 91.6261 98.4341 91.6261H97.0028V92.9165H98.4341C99.0758 92.9165 99.421 92.7172 99.421 92.2708Z" fill="#ED2079"/>
<path d="M102.137 88.5492H103.371V93.8093H102.137V88.5492Z" fill="#ED2079"/>
<path d="M109.936 93.8093V90.6337L108.405 93.2134H107.863L106.332 90.6835V93.7595H105.197V88.5004H106.184L108.158 91.7746L110.083 88.5004H111.071V93.7595H109.936V93.8093Z" fill="#ED2079"/>
<path d="M112.503 93.3131L112.897 92.4203C113.342 92.767 113.983 92.9653 114.625 92.9653C115.365 92.9653 115.612 92.7172 115.612 92.4203C115.612 91.4278 112.552 92.1224 112.552 90.1375C112.552 89.2447 113.292 88.5004 114.773 88.5004C115.414 88.5004 116.106 88.6488 116.6 88.9468L116.204 89.8894C115.711 89.5915 115.217 89.4928 114.773 89.4928C114.033 89.4928 113.786 89.7409 113.786 90.0877C113.786 91.0801 116.846 90.3856 116.846 92.3206C116.846 93.2134 116.106 93.9578 114.625 93.9578C113.835 93.9089 112.996 93.6608 112.503 93.3131Z" fill="#ED2079"/>
<path d="M122.078 89.5416H120.4V88.5492H124.941V89.5416H123.263V93.8093H122.029V89.5416H122.078Z" fill="#ED2079"/>
<path d="M130.272 92.8667V93.8591H126.224V88.599H130.174V89.5915H127.41V90.7333H129.828V91.676H127.41V92.9165H130.272V92.8667Z" fill="#ED2079"/>
<path d="M131.506 91.1797C131.506 89.5915 132.741 88.4506 134.369 88.4506C135.258 88.4506 136.048 88.7973 136.542 89.3932L135.751 90.1375C135.406 89.7409 134.962 89.5417 134.419 89.5417C133.431 89.5417 132.741 90.2371 132.741 91.2286C132.741 92.221 133.431 92.9165 134.419 92.9165C134.962 92.9165 135.406 92.7172 135.751 92.2708L136.542 93.0152C136.048 93.611 135.308 93.9578 134.369 93.9578C132.691 93.9089 131.506 92.7671 131.506 91.1797Z" fill="#ED2079"/>
<path d="M142.712 88.5492V93.8093H141.477V91.6759H139.108V93.8093H137.874V88.5492H139.108V90.6337H141.477V88.5492H142.712Z" fill="#ED2079"/>
<path d="M149.326 88.5492V93.8093H148.338L145.723 90.6337V93.8093H144.538V88.5492H145.525L148.141 91.7248V88.5492H149.326Z" fill="#ED2079"/>
<path d="M150.856 91.1797C150.856 89.6413 152.091 88.4506 153.719 88.4506C155.348 88.4506 156.582 89.5915 156.582 91.1797C156.582 92.7671 155.348 93.9089 153.719 93.9089C152.041 93.9089 150.856 92.7671 150.856 91.1797ZM155.348 91.1797C155.348 90.1873 154.657 89.4928 153.719 89.4928C152.781 89.4928 152.091 90.1873 152.091 91.1797C152.091 92.1722 152.781 92.8667 153.719 92.8667C154.657 92.8667 155.348 92.1722 155.348 91.1797Z" fill="#ED2079"/>
<path d="M158.062 88.5492H159.297V92.8168H161.913V93.8093H158.062V88.5492Z" fill="#ED2079"/>
<path d="M162.752 91.1797C162.752 89.6413 163.987 88.4506 165.615 88.4506C167.244 88.4506 168.478 89.5915 168.478 91.1797C168.478 92.7671 167.244 93.9089 165.615 93.9089C163.987 93.9089 162.752 92.7671 162.752 91.1797ZM167.293 91.1797C167.293 90.1873 166.602 89.4928 165.665 89.4928C164.727 89.4928 164.035 90.1873 164.035 91.1797C164.035 92.1722 164.727 92.8667 165.665 92.8667C166.553 92.8667 167.293 92.1722 167.293 91.1797Z" fill="#ED2079"/>
<path d="M173.563 91.1299H174.648V93.2633C174.056 93.7097 173.266 93.9089 172.525 93.9089C170.897 93.9089 169.663 92.7671 169.663 91.1797C169.663 89.5915 170.897 88.4506 172.525 88.4506C173.464 88.4506 174.205 88.7485 174.698 89.3434L173.908 90.0877C173.513 89.6911 173.069 89.4928 172.575 89.4928C171.539 89.4928 170.847 90.1873 170.847 91.1797C170.847 92.1722 171.539 92.8667 172.525 92.8667C172.872 92.8667 173.167 92.8169 173.464 92.6186V91.1299H173.563Z" fill="#ED2079"/>
<path d="M176.376 88.5492H177.61V93.8093H176.376V88.5492Z" fill="#ED2079"/>
<path d="M183.484 92.8667V93.8591H179.437V88.599H183.385V89.5915H180.621V90.7333H183.04V91.676H180.621V92.9165H183.484V92.8667Z" fill="#ED2079"/>
<path d="M184.619 93.3131L185.015 92.4203C185.458 92.767 186.1 92.9653 186.741 92.9653C187.482 92.9653 187.729 92.7172 187.729 92.4203C187.729 91.4278 184.668 92.1224 184.668 90.1375C184.668 89.2447 185.409 88.5004 186.89 88.5004C187.532 88.5004 188.222 88.6488 188.716 88.9468L188.321 89.8894C187.827 89.5915 187.334 89.4928 186.89 89.4928C186.149 89.4928 185.902 89.7409 185.902 90.0877C185.902 91.0801 188.963 90.3856 188.963 92.3206C188.963 93.2134 188.222 93.9578 186.741 93.9578C185.902 93.9089 185.063 93.6608 184.619 93.3131Z" fill="#ED2079"/>
<path d="M191.628 93.1646C191.628 93.3629 191.579 93.5114 191.431 93.9089L190.987 95H190.246L190.592 93.8093C190.346 93.7097 190.197 93.4615 190.197 93.1646C190.197 92.7172 190.493 92.4203 190.938 92.4203C191.333 92.4203 191.628 92.7172 191.628 93.1646Z" fill="#ED2079"/>
<path d="M195.825 88.5492H197.058V93.8093H195.825V88.5492Z" fill="#ED2079"/>
<path d="M203.673 88.5492V93.8093H202.685L200.07 90.6337V93.8093H198.884V88.5492H199.872L202.488 91.7248V88.5492H203.673Z" fill="#ED2079"/>
<path d="M205.154 91.1797C205.154 89.5915 206.388 88.4506 208.016 88.4506C208.905 88.4506 209.694 88.7973 210.188 89.3932L209.399 90.1375C209.053 89.7409 208.609 89.5417 208.066 89.5417C207.079 89.5417 206.388 90.2371 206.388 91.2286C206.388 92.221 207.079 92.9165 208.066 92.9165C208.609 92.9165 209.053 92.7172 209.399 92.2708L210.188 93.0152C209.694 93.611 208.954 93.9578 208.016 93.9578C206.388 93.9089 205.154 92.7671 205.154 91.1797Z" fill="#ED2079"/>
<path d="M211.324 93.1646C211.324 92.7172 211.669 92.4203 212.064 92.4203C212.459 92.4203 212.805 92.7172 212.805 93.1646C212.805 93.611 212.459 93.9089 212.064 93.9089C211.669 93.9089 211.324 93.5612 211.324 93.1646Z" fill="#ED2079"/>
<path d="M129.548 30.5493C130.763 32.5249 133.158 33.0277 134.98 32.0579C137.16 30.8726 137.767 28.035 136.373 26.0595C129.262 15.9304 120.651 9.03395 109.538 4.58C111.146 7.56128 109.753 11.1532 106.716 12.3385C115.863 16.11 123.724 22.3239 129.548 30.5493ZM103.464 11.0814C106.001 12.0152 108.824 10.1115 108.86 7.23799C108.86 5.58578 107.966 4.00534 106.036 3.25101C94.459 -0.664134 83.5608 -1.13103 72.0551 1.85017C74.9852 3.28693 76.093 6.98661 74.2708 9.78829C78.4868 8.74659 82.8464 8.24377 87.277 8.27969C92.7797 8.35153 98.2471 9.2854 103.464 11.0814ZM70.5897 10.8299C73.8062 9.78828 74.1631 7.05846 73.4846 5.29841C72.6984 3.35877 70.6974 2.10162 67.8743 3.0714C56.4397 6.80701 47.5072 12.8773 40.0029 22.0366C43.3975 21.4259 46.1488 24.048 46.3635 27.0293C46.3635 27.1011 46.3635 27.137 46.3635 27.2089C52.7593 19.5222 61.085 13.9189 70.5897 10.8299ZM44.8629 28.4301C44.827 30.9803 42.7542 32.9918 40.2535 32.9918C37.752 32.9918 35.7151 30.8726 35.7151 28.3583C35.751 25.8081 37.8231 23.7966 40.3246 23.7966C42.826 23.7966 44.8629 25.8799 44.8629 28.4301ZM1.7338 67.9051H8.66592C9.80931 70.5631 12.5964 71.7842 16.2411 71.7842C21.3151 71.7842 24.4953 69.4133 24.4953 62.7327V60.2543C22.53 63.4511 19.1355 65.175 14.8476 65.175C8.02275 65.175 0.769043 60.5774 0.769043 50.4484C0.769043 41.756 7.12943 35.3625 16.1339 35.3625C25.1385 35.3625 31.3559 41.3968 31.3559 50.6639V62.517C31.3559 73.4721 24.6025 77.7826 16.2411 77.7826C9.13045 77.7826 3.52042 74.6933 1.7338 67.9051ZM24.4596 50.4484C24.4596 45.3838 21.1007 41.7919 16.0983 41.7919C11.06 41.7919 7.66541 45.3838 7.66541 50.4484C7.66541 55.5132 11.06 58.7453 16.0983 58.7453C21.1365 58.7453 24.4596 55.5132 24.4596 50.4484ZM36.823 36.1167H43.6833V64.7797H36.823V36.1167ZM49.4006 67.9051H56.2616C57.4047 70.5631 59.6562 71.7842 63.1219 71.7842C67.8032 71.7842 70.4468 69.5215 70.4468 63.9538V60.3618C68.7322 63.4871 65.7304 65.175 61.9782 65.175C55.4036 65.175 49.1507 60.8645 49.1507 50.6639V36.1167H56.0111V50.6639C56.0111 56.1234 58.9052 58.7453 63.2289 58.7453C67.4456 58.7453 70.4468 56.0159 70.4468 50.6639V36.1167H77.3437V63.7742C77.3437 73.7599 71.0542 77.7465 63.1578 77.7465C56.5115 77.7826 51.0089 74.6933 49.4006 67.9051ZM81.5956 50.7357C81.5956 41.6123 87.9562 35.3625 96.9964 35.3625C105.929 35.3625 112.182 41.4686 112.182 50.6639V64.7443H105.894V59.1045C104.178 63.3429 100.283 65.4981 95.7815 65.4981C88.8853 65.5342 81.5956 60.5414 81.5956 50.7357ZM105.322 50.4484C105.322 45.3838 101.963 41.7919 96.9605 41.7919C91.9583 41.7919 88.5277 45.3838 88.5277 50.4484C88.5277 55.5132 91.9224 59.1045 96.9605 59.1045C101.999 59.1045 105.322 55.5132 105.322 50.4484ZM116.685 50.6998C116.685 41.4328 122.902 35.3984 131.871 35.3984C140.947 35.3984 147.272 41.6482 147.272 50.7716C147.272 60.5774 140.018 65.5703 133.086 65.5703C128.977 65.5703 125.582 63.8463 123.581 60.6495V77.0642H116.721V50.6998H116.685ZM140.34 50.4484C140.34 45.3838 136.945 41.7919 131.907 41.7919C126.869 41.7919 123.545 45.3838 123.545 50.4484C123.545 55.5132 126.904 59.1045 131.907 59.1045C136.945 59.1045 140.34 55.5132 140.34 50.4484ZM149.487 50.7357C149.487 41.6123 155.847 35.3625 164.887 35.3625C173.82 35.3625 180.074 41.4686 180.074 50.6639V64.7443H173.785V59.1045C172.07 63.3429 168.175 65.4981 163.673 65.4981C156.74 65.5342 149.487 60.5414 149.487 50.7357ZM173.177 50.4484C173.177 45.3838 169.818 41.7919 164.816 41.7919C159.778 41.7919 156.384 45.3838 156.384 50.4484C156.384 55.5132 159.778 59.1045 164.816 59.1045C169.854 59.1045 173.177 55.5132 173.177 50.4484ZM184.791 67.9051H191.651C192.795 70.5631 195.045 71.7842 198.512 71.7842C203.192 71.7842 205.837 69.5215 205.837 63.9538V60.3618C204.122 63.4871 201.12 65.175 197.368 65.175C190.794 65.175 184.541 60.8645 184.541 50.6639V36.1167H191.401V50.6639C191.401 56.1234 194.295 58.7453 198.619 58.7453C202.836 58.7453 205.837 56.0159 205.837 50.6639V36.1167H212.698V63.7742C212.698 73.7599 206.408 77.7465 198.512 77.7465C191.901 77.7826 186.398 74.6933 184.791 67.9051Z" fill="url(#paint0_linear)"/>
</g>
<defs>
<linearGradient id="paint0_linear" x1="0.757171" y1="38.8449" x2="212.72" y2="38.8449" gradientUnits="userSpaceOnUse">
<stop stop-color="#F9A943"/>
<stop offset="1" stop-color="#EB2D7C"/>
</linearGradient>
<clipPath id="clip0">
<rect width="213" height="95" fill="white"/>
</clipPath>
</defs>
</svg>
